<?xml version="1.0" encoding="UTF-8" standalone="no"?>
<!DOCTYPE svg PUBLIC "-//W3C//DTD SVG 1.1//EN"
 "http://www.w3.org/Graphics/SVG/1.1/DTD/svg11.dtd">
<!-- Generated by graphviz version 2.47.0 (20210316.0004)
 -->
<!-- Title: dependencies Pages: 1 -->
<svg width="4191pt" height="284pt"
 viewBox="0.00 0.00 4191.00 284.00" xmlns="http://www.w3.org/2000/svg" xmlns:xlink="http://www.w3.org/1999/xlink">
<g id="graph0" class="graph" transform="scale(1 1) rotate(0) translate(4 280)">
<title>dependencies</title>
<polygon fill="white" stroke="transparent" points="-4,4 -4,-280 4187,-280 4187,4 -4,4"/>
<text text-anchor="start" x="2070.51" y="-42.4" font-family="Times-12" font-weight="bold" font-size="14.00">Legend</text>
<polygon fill="#ffffb3" stroke="transparent" points="1857.5,-10 1857.5,-30 1877.5,-30 1877.5,-10 1857.5,-10"/>
<text text-anchor="start" x="1881.13" y="-15.4" font-family="Times-12" font-size="14.00"> &#160;Declarations</text>
<polygon fill="#8dd3c7" stroke="transparent" points="1970.5,-10 1970.5,-30 1990.5,-30 1990.5,-10 1970.5,-10"/>
<text text-anchor="start" x="1994.23" y="-15.4" font-family="Times-12" font-size="14.00"> &#160;Module</text>
<polygon fill="#80b1d3" stroke="transparent" points="2056.5,-10 2056.5,-30 2076.5,-30 2076.5,-10 2056.5,-10"/>
<text text-anchor="start" x="2080.28" y="-15.4" font-family="Times-12" font-size="14.00"> &#160;Bootstrap</text>
<polygon fill="#fdb462" stroke="transparent" points="2153.5,-10 2153.5,-30 2173.5,-30 2173.5,-10 2153.5,-10"/>
<text text-anchor="start" x="2177.17" y="-15.4" font-family="Times-12" font-size="14.00"> &#160;Providers</text>
<polygon fill="#fb8072" stroke="transparent" points="2249.5,-10 2249.5,-30 2269.5,-30 2269.5,-10 2249.5,-10"/>
<text text-anchor="start" x="2273.23" y="-15.4" font-family="Times-12" font-size="14.00"> &#160;Exports</text>
<g id="clust1" class="cluster">
<title>cluster_AppModule</title>
<polygon fill="none" stroke="black" stroke-dasharray="1,5" points="8,-70 8,-268 4175,-268 4175,-70 8,-70"/>
</g>
<g id="clust2" class="cluster">
<title>cluster_AppModule_declarations</title>
<polygon fill="none" stroke="black" points="285,-78 285,-130 4167,-130 4167,-78 285,-78"/>
</g>
<g id="clust26" class="cluster">
<title>cluster_AppModule_imports</title>
<polygon fill="none" stroke="black" points="16,-78 16,-130 277,-130 277,-78 16,-78"/>
</g>
<g id="clust28" class="cluster">
<title>cluster_AppModule_bootstrap</title>
<polygon fill="none" stroke="black" points="2055,-208 2055,-260 2179,-260 2179,-208 2055,-208"/>
</g>
<!-- AccessDeniedComponent -->
<g id="node1" class="node">
<title>AccessDeniedComponent</title>
<polygon fill="#ffffb3" stroke="black" points="4158.9,-122 3997.1,-122 3997.1,-86 4158.9,-86 4158.9,-122"/>
<text text-anchor="middle" x="4078" y="-99.8" font-family="Times,serif" font-size="14.00">AccessDeniedComponent</text>
</g>
<!-- AppModule -->
<g id="node24" class="node">
<title>AppModule</title>
<polygon fill="#8dd3c7" stroke="black" points="2158.66,-187 2155.66,-191 2134.66,-191 2131.66,-187 2075.34,-187 2075.34,-151 2158.66,-151 2158.66,-187"/>
<text text-anchor="middle" x="2117" y="-164.8" font-family="Times,serif" font-size="14.00">AppModule</text>
</g>
<!-- AccessDeniedComponent&#45;&gt;AppModule -->
<g id="edge1" class="edge">
<title>AccessDeniedComponent&#45;&gt;AppModule</title>
<path fill="none" stroke="black" d="M4078,-122.38C4078,-146.28 4078,-185 4078,-185 4078,-185 2168.87,-185 2168.87,-185"/>
<polygon fill="black" stroke="black" points="2168.87,-181.5 2158.87,-185 2168.87,-188.5 2168.87,-181.5"/>
</g>
<!-- AnalysisComponent -->
<g id="node2" class="node">
<title>AnalysisComponent</title>
<polygon fill="#ffffb3" stroke="black" points="3979.32,-122 3848.68,-122 3848.68,-86 3979.32,-86 3979.32,-122"/>
<text text-anchor="middle" x="3914" y="-99.8" font-family="Times,serif" font-size="14.00">AnalysisComponent</text>
</g>
<!-- AnalysisComponent&#45;&gt;AppModule -->
<g id="edge2" class="edge">
<title>AnalysisComponent&#45;&gt;AppModule</title>
<path fill="none" stroke="black" d="M3914,-122.09C3914,-145.13 3914,-182 3914,-182 3914,-182 2168.77,-182 2168.77,-182"/>
<polygon fill="black" stroke="black" points="2168.77,-178.5 2158.77,-182 2168.77,-185.5 2168.77,-178.5"/>
</g>
<!-- AppComponent -->
<g id="node3" class="node">
<title>AppComponent</title>
<polygon fill="#ffffb3" stroke="black" points="3830.94,-122 3725.06,-122 3725.06,-86 3830.94,-86 3830.94,-122"/>
<text text-anchor="middle" x="3778" y="-99.8" font-family="Times,serif" font-size="14.00">AppComponent</text>
</g>
<!-- AppComponent&#45;&gt;AppModule -->
<g id="edge3" class="edge">
<title>AppComponent&#45;&gt;AppModule</title>
<path fill="none" stroke="black" d="M3778,-122.16C3778,-144.35 3778,-179 3778,-179 3778,-179 2168.89,-179 2168.89,-179"/>
<polygon fill="black" stroke="black" points="2168.89,-175.5 2158.89,-179 2168.89,-182.5 2168.89,-175.5"/>
</g>
<!-- AudioComponent -->
<g id="node4" class="node">
<title>AudioComponent</title>
<polygon fill="#ffffb3" stroke="black" points="3707.33,-122 3590.67,-122 3590.67,-86 3707.33,-86 3707.33,-122"/>
<text text-anchor="middle" x="3649" y="-99.8" font-family="Times,serif" font-size="14.00">AudioComponent</text>
</g>
<!-- AudioComponent&#45;&gt;AppModule -->
<g id="edge4" class="edge">
<title>AudioComponent&#45;&gt;AppModule</title>
<path fill="none" stroke="black" d="M3649,-122.17C3649,-143.5 3649,-176 3649,-176 3649,-176 2168.77,-176 2168.77,-176"/>
<polygon fill="black" stroke="black" points="2168.77,-172.5 2158.77,-176 2168.77,-179.5 2168.77,-172.5"/>
</g>
<!-- AudioEmotionsComponent -->
<g id="node5" class="node">
<title>AudioEmotionsComponent</title>
<polygon fill="#ffffb3" stroke="black" points="3573,-122 3403,-122 3403,-86 3573,-86 3573,-122"/>
<text text-anchor="middle" x="3488" y="-99.8" font-family="Times,serif" font-size="14.00">AudioEmotionsComponent</text>
</g>
<!-- AudioEmotionsComponent&#45;&gt;AppModule -->
<g id="edge5" class="edge">
<title>AudioEmotionsComponent&#45;&gt;AppModule</title>
<path fill="none" stroke="black" d="M3488,-122.03C3488,-142.77 3488,-174 3488,-174 3488,-174 2168.78,-174 2168.78,-174"/>
<polygon fill="black" stroke="black" points="2168.78,-170.5 2158.78,-174 2168.78,-177.5 2168.78,-170.5"/>
</g>
<!-- AudioVadLiveComponent -->
<g id="node6" class="node">
<title>AudioVadLiveComponent</title>
<polygon fill="#ffffb3" stroke="black" points="3384.81,-122 3219.19,-122 3219.19,-86 3384.81,-86 3384.81,-122"/>
<text text-anchor="middle" x="3302" y="-99.8" font-family="Times,serif" font-size="14.00">AudioVadLiveComponent</text>
</g>
<!-- AudioVadLiveComponent&#45;&gt;AppModule -->
<g id="edge6" class="edge">
<title>AudioVadLiveComponent&#45;&gt;AppModule</title>
<path fill="none" stroke="black" d="M3302,-122.31C3302,-142.15 3302,-171 3302,-171 3302,-171 2168.83,-171 2168.83,-171"/>
<polygon fill="black" stroke="black" points="2168.83,-167.5 2158.83,-171 2168.83,-174.5 2168.83,-167.5"/>
</g>
<!-- AuthenticationComponent -->
<g id="node7" class="node">
<title>AuthenticationComponent</title>
<polygon fill="#ffffb3" stroke="black" points="3201.04,-122 3036.96,-122 3036.96,-86 3201.04,-86 3201.04,-122"/>
<text text-anchor="middle" x="3119" y="-99.8" font-family="Times,serif" font-size="14.00">AuthenticationComponent</text>
</g>
<!-- AuthenticationComponent&#45;&gt;AppModule -->
<g id="edge7" class="edge">
<title>AuthenticationComponent&#45;&gt;AppModule</title>
<path fill="none" stroke="black" d="M3119,-122.17C3119,-141.09 3119,-168 3119,-168 3119,-168 2168.78,-168 2168.78,-168"/>
<polygon fill="black" stroke="black" points="2168.78,-164.5 2158.78,-168 2168.78,-171.5 2168.78,-164.5"/>
</g>
<!-- CategoricComponent -->
<g id="node8" class="node">
<title>CategoricComponent</title>
<polygon fill="#ffffb3" stroke="black" points="3018.75,-122 2883.25,-122 2883.25,-86 3018.75,-86 3018.75,-122"/>
<text text-anchor="middle" x="2951" y="-99.8" font-family="Times,serif" font-size="14.00">CategoricComponent</text>
</g>
<!-- CategoricComponent&#45;&gt;AppModule -->
<g id="edge8" class="edge">
<title>CategoricComponent&#45;&gt;AppModule</title>
<path fill="none" stroke="black" d="M2951,-122.3C2951,-140.27 2951,-165 2951,-165 2951,-165 2168.93,-165 2168.93,-165"/>
<polygon fill="black" stroke="black" points="2168.93,-161.5 2158.93,-165 2168.93,-168.5 2168.93,-161.5"/>
</g>
<!-- ConfigComponent -->
<g id="node9" class="node">
<title>ConfigComponent</title>
<polygon fill="#ffffb3" stroke="black" points="2865.22,-122 2744.78,-122 2744.78,-86 2865.22,-86 2865.22,-122"/>
<text text-anchor="middle" x="2805" y="-99.8" font-family="Times,serif" font-size="14.00">ConfigComponent</text>
</g>
<!-- ConfigComponent&#45;&gt;AppModule -->
<g id="edge9" class="edge">
<title>ConfigComponent&#45;&gt;AppModule</title>
<path fill="none" stroke="black" d="M2805,-122.02C2805,-139.37 2805,-163 2805,-163 2805,-163 2168.74,-163 2168.74,-163"/>
<polygon fill="black" stroke="black" points="2168.74,-159.5 2158.74,-163 2168.74,-166.5 2168.74,-159.5"/>
</g>
<!-- CsvAudiosComponent -->
<g id="node10" class="node">
<title>CsvAudiosComponent</title>
<polygon fill="#ffffb3" stroke="black" points="2726.56,-122 2583.44,-122 2583.44,-86 2726.56,-86 2726.56,-122"/>
<text text-anchor="middle" x="2655" y="-99.8" font-family="Times,serif" font-size="14.00">CsvAudiosComponent</text>
</g>
<!-- CsvAudiosComponent&#45;&gt;AppModule -->
<g id="edge10" class="edge">
<title>CsvAudiosComponent&#45;&gt;AppModule</title>
<path fill="none" stroke="black" d="M2655,-122.03C2655,-138.4 2655,-160 2655,-160 2655,-160 2168.77,-160 2168.77,-160"/>
<polygon fill="black" stroke="black" points="2168.77,-156.5 2158.77,-160 2168.77,-163.5 2168.77,-156.5"/>
</g>
<!-- CustomCardComponent -->
<g id="node11" class="node">
<title>CustomCardComponent</title>
<polygon fill="#ffffb3" stroke="black" points="2565.11,-122 2412.89,-122 2412.89,-86 2565.11,-86 2565.11,-122"/>
<text text-anchor="middle" x="2489" y="-99.8" font-family="Times,serif" font-size="14.00">CustomCardComponent</text>
</g>
<!-- CustomCardComponent&#45;&gt;AppModule -->
<g id="edge11" class="edge">
<title>CustomCardComponent&#45;&gt;AppModule</title>
<path fill="none" stroke="black" d="M2489,-122.24C2489,-137.57 2489,-157 2489,-157 2489,-157 2168.95,-157 2168.95,-157"/>
<polygon fill="black" stroke="black" points="2168.95,-153.5 2158.95,-157 2168.95,-160.5 2168.95,-153.5"/>
</g>
<!-- DeferredInferenceComponent -->
<g id="node12" class="node">
<title>DeferredInferenceComponent</title>
<polygon fill="#ffffb3" stroke="black" points="2394.9,-122 2211.1,-122 2211.1,-86 2394.9,-86 2394.9,-122"/>
<text text-anchor="middle" x="2303" y="-99.8" font-family="Times,serif" font-size="14.00">DeferredInferenceComponent</text>
</g>
<!-- DeferredInferenceComponent&#45;&gt;AppModule -->
<g id="edge12" class="edge">
<title>DeferredInferenceComponent&#45;&gt;AppModule</title>
<path fill="none" stroke="black" d="M2303,-122.05C2303,-136.37 2303,-154 2303,-154 2303,-154 2168.74,-154 2168.74,-154"/>
<polygon fill="black" stroke="black" points="2168.74,-150.5 2158.74,-154 2168.74,-157.5 2168.74,-150.5"/>
</g>
<!-- DimensionalComponent -->
<g id="node13" class="node">
<title>DimensionalComponent</title>
<polygon fill="#ffffb3" stroke="black" points="2193.38,-122 2040.62,-122 2040.62,-86 2193.38,-86 2193.38,-122"/>
<text text-anchor="middle" x="2117" y="-99.8" font-family="Times,serif" font-size="14.00">DimensionalComponent</text>
</g>
<!-- DimensionalComponent&#45;&gt;AppModule -->
<g id="edge13" class="edge">
<title>DimensionalComponent&#45;&gt;AppModule</title>
<path fill="none" stroke="black" d="M2117,-122.11C2117,-122.11 2117,-140.99 2117,-140.99"/>
<polygon fill="black" stroke="black" points="2113.5,-140.99 2117,-150.99 2120.5,-140.99 2113.5,-140.99"/>
</g>
<!-- GraphicRepresentationComponent -->
<g id="node14" class="node">
<title>GraphicRepresentationComponent</title>
<polygon fill="#ffffb3" stroke="black" points="2022.39,-122 1811.61,-122 1811.61,-86 2022.39,-86 2022.39,-122"/>
<text text-anchor="middle" x="1917" y="-99.8" font-family="Times,serif" font-size="14.00">GraphicRepresentationComponent</text>
</g>
<!-- GraphicRepresentationComponent&#45;&gt;AppModule -->
<g id="edge14" class="edge">
<title>GraphicRepresentationComponent&#45;&gt;AppModule</title>
<path fill="none" stroke="black" d="M1917,-122.05C1917,-136.37 1917,-154 1917,-154 1917,-154 2065.07,-154 2065.07,-154"/>
<polygon fill="black" stroke="black" points="2065.07,-157.5 2075.07,-154 2065.07,-150.5 2065.07,-157.5"/>
</g>
<!-- IndividualComponent -->
<g id="node15" class="node">
<title>IndividualComponent</title>
<polygon fill="#ffffb3" stroke="black" points="1793.38,-122 1654.62,-122 1654.62,-86 1793.38,-86 1793.38,-122"/>
<text text-anchor="middle" x="1724" y="-99.8" font-family="Times,serif" font-size="14.00">IndividualComponent</text>
</g>
<!-- IndividualComponent&#45;&gt;AppModule -->
<g id="edge15" class="edge">
<title>IndividualComponent&#45;&gt;AppModule</title>
<path fill="none" stroke="black" d="M1724,-122.24C1724,-137.57 1724,-157 1724,-157 1724,-157 2065.31,-157 2065.31,-157"/>
<polygon fill="black" stroke="black" points="2065.31,-160.5 2075.31,-157 2065.31,-153.5 2065.31,-160.5"/>
</g>
<!-- IndividualFormComponent -->
<g id="node16" class="node">
<title>IndividualFormComponent</title>
<polygon fill="#ffffb3" stroke="black" points="1636.71,-122 1467.29,-122 1467.29,-86 1636.71,-86 1636.71,-122"/>
<text text-anchor="middle" x="1552" y="-99.8" font-family="Times,serif" font-size="14.00">IndividualFormComponent</text>
</g>
<!-- IndividualFormComponent&#45;&gt;AppModule -->
<g id="edge16" class="edge">
<title>IndividualFormComponent&#45;&gt;AppModule</title>
<path fill="none" stroke="black" d="M1552,-122.03C1552,-138.4 1552,-160 1552,-160 1552,-160 2064.99,-160 2064.99,-160"/>
<polygon fill="black" stroke="black" points="2064.99,-163.5 2074.99,-160 2064.99,-156.5 2064.99,-163.5"/>
</g>
<!-- LayoutHeaderComponent -->
<g id="node17" class="node">
<title>LayoutHeaderComponent</title>
<polygon fill="#ffffb3" stroke="black" points="1449.9,-122 1288.1,-122 1288.1,-86 1449.9,-86 1449.9,-122"/>
<text text-anchor="middle" x="1369" y="-99.8" font-family="Times,serif" font-size="14.00">LayoutHeaderComponent</text>
</g>
<!-- LayoutHeaderComponent&#45;&gt;AppModule -->
<g id="edge17" class="edge">
<title>LayoutHeaderComponent&#45;&gt;AppModule</title>
<path fill="none" stroke="black" d="M1369,-122.02C1369,-139.37 1369,-163 1369,-163 1369,-163 2065.18,-163 2065.18,-163"/>
<polygon fill="black" stroke="black" points="2065.18,-166.5 2075.18,-163 2065.18,-159.5 2065.18,-166.5"/>
</g>
<!-- LayoutMainComponent -->
<g id="node18" class="node">
<title>LayoutMainComponent</title>
<polygon fill="#ffffb3" stroke="black" points="1270.04,-122 1119.96,-122 1119.96,-86 1270.04,-86 1270.04,-122"/>
<text text-anchor="middle" x="1195" y="-99.8" font-family="Times,serif" font-size="14.00">LayoutMainComponent</text>
</g>
<!-- LayoutMainComponent&#45;&gt;AppModule -->
<g id="edge18" class="edge">
<title>LayoutMainComponent&#45;&gt;AppModule</title>
<path fill="none" stroke="black" d="M1195,-122.3C1195,-140.27 1195,-165 1195,-165 1195,-165 2065.29,-165 2065.29,-165"/>
<polygon fill="black" stroke="black" points="2065.29,-168.5 2075.29,-165 2065.29,-161.5 2065.29,-168.5"/>
</g>
<!-- LoginComponent -->
<g id="node19" class="node">
<title>LoginComponent</title>
<polygon fill="#ffffb3" stroke="black" points="1101.28,-122 986.72,-122 986.72,-86 1101.28,-86 1101.28,-122"/>
<text text-anchor="middle" x="1044" y="-99.8" font-family="Times,serif" font-size="14.00">LoginComponent</text>
</g>
<!-- LoginComponent&#45;&gt;AppModule -->
<g id="edge19" class="edge">
<title>LoginComponent&#45;&gt;AppModule</title>
<path fill="none" stroke="black" d="M1044,-122.17C1044,-141.09 1044,-168 1044,-168 1044,-168 2065.27,-168 2065.27,-168"/>
<polygon fill="black" stroke="black" points="2065.27,-171.5 2075.27,-168 2065.27,-164.5 2065.27,-171.5"/>
</g>
<!-- PrincipalComponent -->
<g id="node20" class="node">
<title>PrincipalComponent</title>
<polygon fill="#ffffb3" stroke="black" points="968.88,-122 837.12,-122 837.12,-86 968.88,-86 968.88,-122"/>
<text text-anchor="middle" x="903" y="-99.8" font-family="Times,serif" font-size="14.00">PrincipalComponent</text>
</g>
<!-- PrincipalComponent&#45;&gt;AppModule -->
<g id="edge20" class="edge">
<title>PrincipalComponent&#45;&gt;AppModule</title>
<path fill="none" stroke="black" d="M903,-122.31C903,-142.15 903,-171 903,-171 903,-171 2065.21,-171 2065.21,-171"/>
<polygon fill="black" stroke="black" points="2065.21,-174.5 2075.21,-171 2065.21,-167.5 2065.21,-174.5"/>
</g>
<!-- RegisterFormComponent -->
<g id="node21" class="node">
<title>RegisterFormComponent</title>
<polygon fill="#ffffb3" stroke="black" points="819.32,-122 660.68,-122 660.68,-86 819.32,-86 819.32,-122"/>
<text text-anchor="middle" x="740" y="-99.8" font-family="Times,serif" font-size="14.00">RegisterFormComponent</text>
</g>
<!-- RegisterFormComponent&#45;&gt;AppModule -->
<g id="edge21" class="edge">
<title>RegisterFormComponent&#45;&gt;AppModule</title>
<path fill="none" stroke="black" d="M740,-122.03C740,-142.77 740,-174 740,-174 740,-174 2065.04,-174 2065.04,-174"/>
<polygon fill="black" stroke="black" points="2065.04,-177.5 2075.04,-174 2065.04,-170.5 2065.04,-177.5"/>
</g>
<!-- ShiftFormComponent -->
<g id="node22" class="node">
<title>ShiftFormComponent</title>
<polygon fill="#ffffb3" stroke="black" points="642.39,-122 503.61,-122 503.61,-86 642.39,-86 642.39,-122"/>
<text text-anchor="middle" x="573" y="-99.8" font-family="Times,serif" font-size="14.00">ShiftFormComponent</text>
</g>
<!-- ShiftFormComponent&#45;&gt;AppModule -->
<g id="edge22" class="edge">
<title>ShiftFormComponent&#45;&gt;AppModule</title>
<path fill="none" stroke="black" d="M573,-122.17C573,-143.5 573,-176 573,-176 573,-176 2065.3,-176 2065.3,-176"/>
<polygon fill="black" stroke="black" points="2065.3,-179.5 2075.3,-176 2065.3,-172.5 2065.3,-179.5"/>
</g>
<!-- ShiftRepresentationComponent -->
<g id="node23" class="node">
<title>ShiftRepresentationComponent</title>
<polygon fill="#ffffb3" stroke="black" points="485.03,-122 292.97,-122 292.97,-86 485.03,-86 485.03,-122"/>
<text text-anchor="middle" x="389" y="-99.8" font-family="Times,serif" font-size="14.00">ShiftRepresentationComponent</text>
</g>
<!-- ShiftRepresentationComponent&#45;&gt;AppModule -->
<g id="edge23" class="edge">
<title>ShiftRepresentationComponent&#45;&gt;AppModule</title>
<path fill="none" stroke="black" d="M389,-122.16C389,-144.35 389,-179 389,-179 389,-179 2065.14,-179 2065.14,-179"/>
<polygon fill="black" stroke="black" points="2065.14,-182.5 2075.14,-179 2065.14,-175.5 2065.14,-182.5"/>
</g>
<!-- AppComponent  -->
<g id="node27" class="node">
<title>AppComponent </title>
<polygon fill="#80b1d3" stroke="black" points="2171.44,-252 2062.56,-252 2062.56,-216 2171.44,-216 2171.44,-252"/>
<text text-anchor="middle" x="2117" y="-229.8" font-family="Times,serif" font-size="14.00">AppComponent </text>
</g>
<!-- AppModule&#45;&gt;AppComponent  -->
<g id="edge26" class="edge">
<title>AppModule&#45;&gt;AppComponent </title>
<path fill="none" stroke="black" stroke-dasharray="1,5" d="M2117,-187.11C2117,-187.11 2117,-205.99 2117,-205.99"/>
<polygon fill="black" stroke="black" points="2113.5,-205.99 2117,-215.99 2120.5,-205.99 2113.5,-205.99"/>
</g>
<!-- AppRoutingModule -->
<g id="node25" class="node">
<title>AppRoutingModule</title>
<polygon fill="#8dd3c7" stroke="black" points="269.27,-122 266.27,-126 245.27,-126 242.27,-122 140.73,-122 140.73,-86 269.27,-86 269.27,-122"/>
<text text-anchor="middle" x="205" y="-99.8" font-family="Times,serif" font-size="14.00">AppRoutingModule</text>
</g>
<!-- AppRoutingModule&#45;&gt;AppModule -->
<g id="edge24" class="edge">
<title>AppRoutingModule&#45;&gt;AppModule</title>
<path fill="none" stroke="black" d="M205,-122.09C205,-145.13 205,-182 205,-182 205,-182 2065.29,-182 2065.29,-182"/>
<polygon fill="black" stroke="black" points="2065.29,-185.5 2075.29,-182 2065.29,-178.5 2065.29,-185.5"/>
</g>
<!-- SharedModule -->
<g id="node26" class="node">
<title>SharedModule</title>
<polygon fill="#8dd3c7" stroke="black" points="122.42,-122 119.42,-126 98.42,-126 95.42,-122 23.58,-122 23.58,-86 122.42,-86 122.42,-122"/>
<text text-anchor="middle" x="73" y="-99.8" font-family="Times,serif" font-size="14.00">SharedModule</text>
</g>
<!-- SharedModule&#45;&gt;AppModule -->
<g id="edge25" class="edge">
<title>SharedModule&#45;&gt;AppModule</title>
<path fill="none" stroke="black" d="M73,-122.38C73,-146.28 73,-185 73,-185 73,-185 2065.24,-185 2065.24,-185"/>
<polygon fill="black" stroke="black" points="2065.24,-188.5 2075.24,-185 2065.24,-181.5 2065.24,-188.5"/>
</g>
</g>
</svg>
